<svg width="124" height="16" viewBox="0 0 124 16" fill="none" xmlns="http://www.w3.org/2000/svg">
<g id="Clip path group">
<mask id="mask0_800_29677" style="mask-type:luminance" maskUnits="userSpaceOnUse" x="0" y="0" width="124" height="16">
<g id="clippath">
<path id="Vector" d="M123.077 0H0V16H123.077V0Z" fill="white"/>
</g>
</mask>
<g mask="url(#mask0_800_29677)">
<g id="Group">
<g id="Group_2">
<path id="Vector_2" d="M35.525 0H33.707V15.6686H35.525V0Z" fill="#FAFAFA"/>
<path id="Vector_3" d="M39.4811 7.55569C40.0561 7.78774 40.6048 8.08325 41.1164 8.44287C42.1644 7.30505 42.8061 5.78582 42.8061 4.11915C42.8061 3.9371 42.7971 3.75633 42.7824 3.57812H40.9914C41.0119 3.75569 41.0241 3.93582 41.0241 4.11915C41.0241 5.48454 40.4266 6.71146 39.4805 7.55505L39.4811 7.55569Z" fill="#FAFAFA"/>
<path id="Vector_4" d="M41.9915 11.9862C41.9601 11.9317 41.9299 11.8778 41.8972 11.8246C41.8921 11.8163 41.8876 11.808 41.8825 11.8003C40.9075 10.215 39.253 9.08616 37.3203 8.80859V10.5926C39.4306 11.0086 41.0274 12.8753 41.0274 15.108C41.0274 15.2977 41.0145 15.4849 40.9928 15.6682H42.7844C42.8004 15.483 42.8094 15.2964 42.8094 15.108C42.8094 13.9746 42.512 12.9092 41.9921 11.9855L41.9915 11.9862Z" fill="#FAFAFA"/>
<path id="Vector_5" d="M123.075 3.57812H121.293V15.6692H123.075V3.57812Z" fill="#FAFAFA"/>
<path id="Vector_6" d="M25.5045 5.03422C28.0622 5.03422 30.1423 7.09768 30.1423 9.63293C30.1423 12.1682 28.0622 14.2317 25.5045 14.2317C22.9468 14.2317 20.8666 12.1682 20.8666 9.63293C20.8666 7.09768 22.9468 5.03422 25.5045 5.03422ZM25.5045 3.26562C21.9577 3.26562 19.082 6.11627 19.082 9.63293C19.082 13.1496 21.9577 16.0002 25.5045 16.0002C29.0513 16.0002 31.9263 13.1496 31.9263 9.63293C31.9263 6.11627 29.0506 3.26562 25.5045 3.26562Z" fill="#FAFAFA"/>
<path id="Vector_7" d="M70.9927 3.26562C67.4459 3.26562 64.5703 6.11627 64.5703 9.63293H66.3543C66.3543 7.09704 68.4344 5.03422 70.9921 5.03422C73.5498 5.03422 75.6299 7.09768 75.6299 9.63293H77.4139C77.4139 6.11691 74.5383 3.26562 70.9921 3.26562H70.9927Z" fill="#FAFAFA"/>
<path id="Vector_8" d="M67.429 16.0001C70.9758 16.0001 73.8514 13.1495 73.8514 9.63281H72.0674C72.0674 12.1687 69.9873 14.2315 67.4296 14.2315C64.8719 14.2315 62.7918 12.1681 62.7918 9.63281H61.0078C61.0078 13.1488 63.8835 16.0001 67.4302 16.0001H67.429Z" fill="#FAFAFA"/>
<path id="Vector_9" d="M9.98494 3.26562C6.43814 3.26562 3.5625 6.11627 3.5625 9.63293H5.34647C5.34647 7.09704 7.4266 5.03422 9.9843 5.03422C12.542 5.03422 14.6221 7.09768 14.6221 9.63293H16.4061C16.4061 6.11691 13.5304 3.26562 9.98365 3.26562H9.98494Z" fill="#FAFAFA"/>
<path id="Vector_10" d="M6.42244 16.0001C9.96923 16.0001 12.8449 13.1495 12.8449 9.63281H11.0609C11.0609 12.1687 8.98077 14.2315 6.42308 14.2315C3.86538 14.2315 1.78462 12.1681 1.78462 9.63281H0C0 13.1488 2.87628 16.0001 6.42244 16.0001Z" fill="#FAFAFA"/>
<path id="Vector_11" d="M51.9107 5.03422C54.4684 5.03422 56.5485 7.09768 56.5485 9.63293C56.5485 12.1682 54.4678 14.2317 51.9107 14.2317C49.3537 14.2317 47.2723 12.1682 47.2723 9.63293C47.2723 7.09768 49.353 5.03422 51.9107 5.03422ZM51.9107 3.26562C48.3639 3.26562 45.4883 6.11627 45.4883 9.63293C45.4883 13.1496 48.3639 16.0002 51.9107 16.0002C55.4575 16.0002 58.3325 13.1496 58.3325 9.63293C58.3325 6.11627 55.4569 3.26562 51.9107 3.26562Z" fill="#FAFAFA"/>
<path id="Vector_12" d="M91.1495 3.57812V9.57107C91.1495 12.1313 89.0693 14.214 86.5116 14.214C83.9539 14.214 81.8738 12.1307 81.8738 9.57107V3.57812H80.0898V9.57107C80.0898 13.1217 82.9655 15.9999 86.5123 15.9999C90.0591 15.9999 92.9341 13.1211 92.9341 9.57107V3.57812H91.1501H91.1495Z" fill="#FAFAFA"/>
<path id="Vector_13" d="M28.7148 0H22.293V1.78397H28.7148V0Z" fill="#FAFAFA"/>
<path id="Vector_14" d="M96.5034 15.6679V9.67494C96.5034 7.11468 98.5835 5.03199 101.141 5.03199C103.699 5.03199 105.779 7.11533 105.779 9.67494V15.6679H107.563V9.67494C107.563 6.1243 104.687 3.24609 101.141 3.24609C97.5937 3.24609 94.7188 6.12494 94.7188 9.67494V15.6679H96.5027H96.5034Z" fill="#FAFAFA"/>
<path id="Vector_15" d="M112.191 3.24673C110.522 3.24673 109.001 3.8852 107.859 4.93007C108.222 5.44097 108.521 5.98776 108.754 6.56148C109.604 5.62302 110.83 5.03199 112.191 5.03199C114.749 5.03199 116.829 7.11532 116.829 9.67494V15.6679H118.613V9.67494C118.613 6.1243 115.738 3.24609 112.191 3.24609L112.191 3.24673Z" fill="#FAFAFA"/>
<path id="Vector_16" d="M123.075 0.00390625H121.293V1.78788H123.075V0.00390625Z" fill="#FAFAFA"/>
</g>
</g>
</g>
</g>
</svg>
